<svg xmlns="http://www.w3.org/2000/svg" viewBox="0 0 363.09 64.17"><defs><style>.cls-1{fill:#ccccb2;}</style></defs><title>stars5</title><g id="Layer_2" data-name="Layer 2"><g id="Layer_1-2" data-name="Layer 1"><path class="cls-1" d="M9.32,60.57,31.44,2.16c1.09-2.89,2.83-2.88,3.87,0L55.78,59.61C57,63,55.57,64.08,52.63,62L1.87,25.88C-1,23.82-.49,22.14,3.06,22.14H61.27c3.44,0,4,1.67,1.23,3.72L12.48,63C9.37,65.26,8,64.19,9.32,60.57Z"/><path class="cls-1" d="M163.28,60.57,185.4,2.16c1.09-2.89,2.84-2.88,3.88,0l20.46,57.42c1.21,3.4-.2,4.47-3.14,2.38L155.83,25.88c-2.9-2.06-2.36-3.74,1.2-3.74h58.21c3.44,0,4,1.67,1.23,3.72l-50,37.1C163.34,65.26,161.91,64.19,163.28,60.57Z"/><path class="cls-1" d="M86.33,60.57,108.44,2.16c1.1-2.89,2.84-2.88,3.88,0l20.46,57.42c1.21,3.4-.2,4.47-3.14,2.38L78.87,25.88c-2.9-2.06-2.36-3.74,1.2-3.74h58.21c3.44,0,4,1.67,1.23,3.72L89.49,63C86.38,65.26,85,64.19,86.33,60.57Z"/><path class="cls-1" d="M235.71,60.57,257.83,2.16c1.1-2.89,2.84-2.88,3.88,0l20.46,57.42C283.38,63,282,64.08,279,62L228.26,25.88c-2.9-2.06-2.36-3.74,1.2-3.74h58.21c3.44,0,4,1.67,1.23,3.72l-50,37.1C235.77,65.26,234.34,64.19,235.71,60.57Z"/><path class="cls-1" d="M308.15,60.57,330.26,2.16c1.1-2.89,2.84-2.88,3.88,0L354.6,59.61c1.21,3.4-.2,4.47-3.14,2.38L300.69,25.88c-2.9-2.06-2.36-3.74,1.2-3.74H360.1c3.44,0,4,1.67,1.23,3.72l-50,37.1C308.2,65.26,306.77,64.19,308.15,60.57Z"/></g></g></svg>